<svg id="Layer_1" data-name="Layer 1" xmlns="http://www.w3.org/2000/svg" viewBox="0 0 991.29 212.77"><defs><style>.cls-1{fill:#fff;}</style></defs><title>fac</title><path class="cls-1" d="M233.47,95.42c.12,1.46.19,2.92.23,4.38l39.92-18.41L242,12.81,199.82,32.26a90.28,90.28,0,0,1,12.37,12L210,39.49s0,0,0,0c10.5-4.8,21.05-9.77,31.49-14.46l22.55,48.9s0,0-.06,0L232.6,88.43C233,90.73,233.28,93.06,233.47,95.42Zm-23-64.59c.68,1.46,1.35,2.92,2,4.39,0,0,0,0-.06.05l-3.57,1.65-2-4.41Zm11,.13s0,0-.06.06l-3.58,1.65q-1-2.22-2-4.42l3.64-1.68C220.12,28,220.79,29.5,221.47,31Zm9.43-4.24s0,0-.06.05l-3.58,1.65c-.68-1.47-1.35-2.94-2-4.41l3.65-1.68C229.55,23.79,230.22,25.26,230.9,26.72Zm9.52-4.26s0,0,0,.05a13.69,13.69,0,0,1-2,1l-1.78.81-2-4.41c1.13-.69,2.61-1.24,3.88-1.87C239.07,19.53,239.75,21,240.42,22.46Zm23.14,60.4q-1-2.2-2-4.41a11.17,11.17,0,0,1,1.83-.93l1.95-.9,2,4.4s-.13,0,0,.12Zm-11.41-.27c1.22-.56,2.43-1.13,3.65-1.68l2,4.39s0,0-.05,0L254.19,87ZM242.8,87l3.65-1.68c.67,1.46,1.35,2.93,2,4.4,0,0,0,0-.05,0l-3.58,1.64Zm-7.05,8.5q-1-2.2-2-4.42l3.64-1.67c.67,1.46,1.35,2.93,2,4.39,0,0,0,0-.06,0Z" transform="translate(-16 -11.62)"/><path class="cls-1" d="M97,171.16l3.16-1.46c.53,1,1.06,2.08,1.58,3.12Q99.35,171.92,97,171.16Z" transform="translate(-16 -11.62)"/><path class="cls-1" d="M123.66,158.93a24.26,24.26,0,0,1,2.5-1.24l3-1.38c1,2.08,2.1,4.16,3.14,6.24l-5.54,2.56Q125.21,162,123.66,158.93Z" transform="translate(-16 -11.62)"/><path class="cls-1" d="M57.76,85.38l2.55,5.08-2,.92Q58,88.38,57.76,85.38Z" transform="translate(-16 -11.62)"/><path class="cls-1" d="M74.83,83.92l-5.27,2.43Q68,83.28,66.46,80.2l5.27-2.43C72.77,79.82,73.81,81.87,74.83,83.92Z" transform="translate(-16 -11.62)"/><path class="cls-1" d="M103.07,71.17,97.8,73.61l-3.09-6.12L100,65.05C101,67.1,102.05,69.13,103.07,71.17Z" transform="translate(-16 -11.62)"/><path class="cls-1" d="M89.5,77.34a26.17,26.17,0,0,1-2.9,1.42L83.86,80l-3.09-6.14c1.68-1,3.8-1.79,5.64-2.69Z" transform="translate(-16 -11.62)"/><path class="cls-1" d="M109.23,165.34l5.28-2.43q1.55,3.06,3.08,6.12l-5.28,2.43Z" transform="translate(-16 -11.62)"/><path class="cls-1" d="M140.82,53.88c-.28-.07-.66-1.08-.88-1.51l-2.28-4.53L143,45.36l3.11,6.15-3.93,1.81C141.91,53.46,141.09,54,140.82,53.88Z" transform="translate(-16 -11.62)"/><path class="cls-1" d="M151.47,146.3l5.27-2.44q1.56,3.07,3.1,6.15l-5.28,2.44Z" transform="translate(-16 -11.62)"/><path class="cls-1" d="M116.94,64.63l-5.28,2.43q-1.53-3.06-3.08-6.12l5.28-2.44Z" transform="translate(-16 -11.62)"/><path class="cls-1" d="M165.86,139.51l5.28-2.44q1.55,3.08,3.1,6.15L169,145.66C167.93,143.6,166.9,141.56,165.86,139.51Z" transform="translate(-16 -11.62)"/><path class="cls-1" d="M137.47,152.59l5.28-2.43q1.55,3.08,3.1,6.15l-5.28,2.43Q139,155.67,137.47,152.59Z" transform="translate(-16 -11.62)"/><path class="cls-1" d="M180.56,132.92l5.25-2.42,3.08,6.12L183.64,139C182.62,137,181.59,135,180.56,132.92Z" transform="translate(-16 -11.62)"/><path class="cls-1" d="M131.46,58.08l-5.27,2.44L123.1,54.4,128.38,52Q129.93,55,131.46,58.08Z" transform="translate(-16 -11.62)"/><path class="cls-1" d="M199.76,123.54l3.22,6.39s0,.06-.09.08l-5.51,2.54-3.23-6.42Z" transform="translate(-16 -11.62)"/><path class="cls-1" d="M213.76,117.25q1.61,3.19,3.22,6.39s0,0-.09.07c-1.84.85-3.67,1.7-5.52,2.54q-1.6-3.21-3.23-6.42Z" transform="translate(-16 -11.62)"/><path class="cls-1" d="M229.36,117.81l-3.58,1.65L222.54,113l5.59-2.57Q228.79,114.13,229.36,117.81Z" transform="translate(-16 -11.62)"/><path class="cls-1" d="M157,38.42l3.21,6.39s0,.06-.08.08l-5.51,2.54L151.34,41Z" transform="translate(-16 -11.62)"/><path class="cls-1" d="M187.52,32.24,183,34.34c-1.09-2.14-2.16-4.28-3.24-6.42l2.38-1.09A67.36,67.36,0,0,0,187.52,32.24Z" transform="translate(-16 -11.62)"/><path class="cls-1" d="M174,38.34l-5.51,2.54-3.24-6.42,5.62-2.59q1.6,3.19,3.22,6.39S174,38.32,174,38.34Z" transform="translate(-16 -11.62)"/><path class="cls-1" d="M111.43,177.19,198.54,137c.05,0,.1,0,.08-.08h0L230,122.45c-.22-1.54-.43-3.09-.67-4.64l-3.58,1.65L222.54,113l5.59-2.57c-.26-1.44-.54-2.88-.82-4.31l-34.95,16.11c-12-23.62-23.91-47.43-35.87-71.12,0,0,0,0,0-.06,11.5-5.27,23-10.62,34.52-15.89-1.21-1-2.39-1.93-3.54-3L183,34.34c-1.09-2.14-2.16-4.28-3.24-6.42l2.38-1.09Q180.52,25,179,23.14L57.19,79.31l.57,6.07,2.55,5.08-2,.92c.16,1.61.31,3.22.47,4.83,10.89-5,21.78-10.08,32.6-14.95l35.67,70.8-37.31,17.2a71.62,71.62,0,0,1,7.19,1.9l3.16-1.46c.53,1,1.06,2.08,1.58,3.12A106.06,106.06,0,0,1,111.43,177.19ZM71.73,77.77c1,2,2.08,4.1,3.1,6.15l-5.27,2.43Q68,83.28,66.46,80.2ZM86.41,71.2l3.09,6.14a26.17,26.17,0,0,1-2.9,1.42L83.86,80l-3.09-6.14C82.45,72.92,84.57,72.1,86.41,71.2ZM100,65.05c1,2,2.06,4.08,3.08,6.12L97.8,73.61l-3.09-6.12Zm13.87-6.55,3.08,6.13-5.28,2.43q-1.53-3.06-3.08-6.12ZM128.38,52q1.55,3.06,3.08,6.12l-5.27,2.44L123.1,54.4Zm40.07-11.08-3.24-6.42,5.62-2.59q1.6,3.19,3.22,6.39s0,.06-.09.08Zm-13.87,6.55L151.34,41,157,38.42l3.21,6.39s0,.06-.08.08Zm-13.76,6.45c-.28-.07-.66-1.08-.88-1.51l-2.28-4.53L143,45.36l3.11,6.15-3.93,1.81C141.91,53.46,141.09,54,140.82,53.88Zm42.89,72.38-48.16,22.21L99.83,77.57,148,55.38s0,0,.07,0Zm27.66,0q-1.6-3.21-3.23-6.42l5.62-2.58q1.61,3.19,3.22,6.39s0,0-.09.07C215.05,124.56,213.22,125.41,211.37,126.25Zm-14,6.3-3.23-6.42,5.61-2.59,3.22,6.39s0,.06-.09.08ZM183.64,139c-1-2-2-4.08-3.08-6.12l5.25-2.42,3.08,6.12ZM169,145.66c-1-2.06-2.06-4.1-3.1-6.15l5.28-2.44q1.55,3.08,3.1,6.15Zm-14.4,6.79-3.09-6.15,5.27-2.44q1.56,3.07,3.1,6.15Zm-14,6.29q-1.56-3.08-3.1-6.15l5.28-2.43q1.55,3.08,3.1,6.15Zm-13.8,6.37q-1.56-3.09-3.11-6.18a24.26,24.26,0,0,1,2.5-1.24l3-1.38c1,2.08,2.1,4.16,3.14,6.24Zm-14.46,6.35-3.08-6.12,5.28-2.43q1.55,3.06,3.08,6.12Z" transform="translate(-16 -11.62)"/><path class="cls-1" d="M80.59,167.17l-1.31.61-1.71-3.7c-.89-1-1.76-1.94-2.62-2.94L48.15,173.5Q36.87,149,25.59,124.55s0,0,0,0l28.27-13c0-.49-.11-1-.15-1.46s-.05-.93-.08-1.4l-.44.2c-.19.09-.73.42-.9.36s-.42-.74-.56-1c-.54-1.18-1.06-2.32-1.57-3.42l2.74-1.26.54-.27q0-1.73,0-3.45L16,117l31.62,68.58L82.9,169.36Q81.73,168.28,80.59,167.17ZM42.82,113.49l-2-4.42,3.64-1.68c.68,1.47,1.36,2.93,2,4.4,0,0,0,0-.05,0Zm-9.43,4.24-2-4.42L35,111.64c.68,1.46,1.35,2.93,2,4.39,0,0,0,0-.05,0Zm-9,4.26-2-4.42L26,115.89c.67,1.47,1.35,2.93,2,4.4,0,0,0,0-.05,0Zm28.53,52.48,2,4.4s0,0-.06,0l-3.58,1.65c-.68-1.48-1.35-2.95-2-4.42Zm11.11.31s0,0,0,.05l-3.58,1.65-2-4.41L62,170.39ZM71.35,166c.68,1.47,1.35,2.93,2,4.4,0,0,0,0-.05,0l-3.58,1.65-2-4.42Z" transform="translate(-16 -11.62)"/><path class="cls-1" d="M199.63,204,237,222.58l-7.78-41-7-37.2q1.95-3.66,3.58-7.52c.57-1.35,1.11-2.7,1.62-4.08.82-2.23,1.51-4.47,2.14-6.71a89.76,89.76,0,0,0,0-48.69,91.16,91.16,0,0,0-6.23-16,90.13,90.13,0,0,0-161.13,0c-.51,1-1,2.07-1.47,3.12-.75,1.64-1.45,3.3-2.1,5-.17.44-.35.86-.52,1.31s-.3.92-.46,1.38a89.7,89.7,0,0,0-1.67,53.92c.35,1.26.74,2.52,1.15,3.77S58,132.6,58.47,134c.38,1,.77,2,1.19,3a90,90,0,0,0,108.41,51.37Zm-25.28-34a75.23,75.23,0,0,1-98.2-33.14c-.6-1.13-1.17-2.27-1.71-3.43a77.81,77.81,0,0,1-2.94-7.36A74.81,74.81,0,0,1,72,75.94c.46-1.27,1-2.52,1.49-3.75a72.6,72.6,0,0,1,3.38-6.92l.49-.84c.59-1,1.2-2.05,1.83-3.05a75.2,75.2,0,0,1,126.86,0c1.08,1.69,2.1,3.42,3,5.2.49.93,1,1.86,1.41,2.8.12.26.26.51.38.78.31.67.59,1.35.88,2a74.89,74.89,0,0,1,2.06,53.92c-.18.53-.34,1.06-.53,1.59s-.35.86-.52,1.29c-.64,1.66-1.33,3.29-2.07,4.87-.48,1-1,2-1.52,3A74.93,74.93,0,0,1,174.35,170Z" transform="translate(-16 -11.62)"/><path class="cls-1" d="M378,110.15H309v39.3h60v15.12H309v57.6H292.1V95H378Z" transform="translate(-16 -11.62)"/><path class="cls-1" d="M403.94,222.17H387.18V95h16.76Z" transform="translate(-16 -11.62)"/><path class="cls-1" d="M518.47,222.17H501.23L434.48,121.9V222.17h-16V95h17.43l66.46,100.46V95h16.08Z" transform="translate(-16 -11.62)"/><path class="cls-1" d="M636.19,157.93q0,64.23-64.82,64.24H531V95h40.36Q636.19,95,636.19,157.93Zm-17.34,0a83.22,83.22,0,0,0-2.21-20,35.27,35.27,0,0,0-7.66-15,34.47,34.47,0,0,0-14.64-9.44q-9.2-3.27-23.17-3.28H547.86v96.9h23.31q13.88,0,23.07-3.33A34.3,34.3,0,0,0,608.93,194a36.4,36.4,0,0,0,7.71-15.45A88.08,88.08,0,0,0,618.85,157.93Z" transform="translate(-16 -11.62)"/><path class="cls-1" d="M748.12,222.17H729.05l-14.74-38.62H661.05L647,222.17H629.27L678,95h18.3ZM709.4,170.06,687,111.21l-21.29,58.85Z" transform="translate(-16 -11.62)"/><path class="cls-1" d="M1007.29,133.56H990.05a24.56,24.56,0,0,0-3.18-10.93,27.25,27.25,0,0,0-7.32-8.29A33.33,33.33,0,0,0,969,109.09a45.18,45.18,0,0,0-13.1-1.83,43.33,43.33,0,0,0-17.39,3.37,35.44,35.44,0,0,0-13.19,9.88,45.52,45.52,0,0,0-8.38,16,74.65,74.65,0,0,0-2.94,22,74.68,74.68,0,0,0,2.94,21.91,46.49,46.49,0,0,0,8.33,16.14,35.29,35.29,0,0,0,13.1,10,41.8,41.8,0,0,0,17.14,3.42A47.12,47.12,0,0,0,969,208.11a30.64,30.64,0,0,0,10.59-5.45,27.24,27.24,0,0,0,7.18-8.81,31.59,31.59,0,0,0,3.27-12h17.24a46.39,46.39,0,0,1-5,18,43,43,0,0,1-11,13.39,47.5,47.5,0,0,1-15.85,8.33,65.08,65.08,0,0,1-19.65,2.84,62.76,62.76,0,0,1-24.56-4.62,51.49,51.49,0,0,1-18.68-13.24,59.46,59.46,0,0,1-11.85-20.81,84.2,84.2,0,0,1-4.14-27.21,83.45,83.45,0,0,1,4.19-27.21,59.47,59.47,0,0,1,11.9-20.75A52.09,52.09,0,0,1,931.3,97.3a61.77,61.77,0,0,1,24.46-4.68,60.73,60.73,0,0,1,19.07,2.94,52.72,52.72,0,0,1,15.9,8.29,44,44,0,0,1,11.31,12.9A40.4,40.4,0,0,1,1007.29,133.56Z" transform="translate(-16 -11.62)"/><path class="cls-1" d="M881.93,222.17H865.17V95h16.76Z" transform="translate(-16 -11.62)"/><path class="cls-1" d="M754.49,95h47.68a100.88,100.88,0,0,1,18.44,1.64,44.48,44.48,0,0,1,15.56,5.83A31.05,31.05,0,0,1,847,113.86q4,7.19,4,18.25,0,19.37-12.14,29.28t-35.54,9.92h-32v50.86H754.49Zm16.86,61.16h32.36a53.15,53.15,0,0,0,13.77-1.54,24.36,24.36,0,0,0,9.3-4.53,17.23,17.23,0,0,0,5.25-7.41,29.44,29.44,0,0,0,1.63-10.21q0-7-2.45-11.42a17.55,17.55,0,0,0-6.65-6.78,28,28,0,0,0-9.73-3.28,75.34,75.34,0,0,0-11.7-.87H771.35Z" transform="translate(-16 -11.62)"/></svg>